<svg width="34" height="38" viewBox="0 0 34 38" fill="none" xmlns="http://www.w3.org/2000/svg">
<ellipse cx="17.5362" cy="28.3982" rx="15.5362" ry="9.39823" fill="#FF0000"/>
<path d="M4.24634 31.9027L16.9235 1C34.4903 6.98938 34.2036 23.4602 31.8643 30.9469L4.24634 31.9027Z" fill="#FF0000" stroke="#FF0000"/>
<path d="M4.20995 12.469C-0.984254 20.8796 1.27275 28.1858 3.05053 30.7876L23.4563 21.8672C18.2621 20.338 8.46116 14.9646 4.20995 12.469Z" fill="#FF0000" stroke="#FF0000"/>
<path d="M28.2853 28.5C28.2853 31.843 23.6135 34.5531 17.8505 34.5531C12.0876 34.5531 7.41575 31.843 7.41575 28.5C7.41575 25.157 12.0876 22.4469 17.8505 22.4469C23.6135 22.4469 28.2853 25.157 28.2853 28.5Z" fill="#FFB800"/>
<path d="M8.88403 30.3097L17.4718 10.5575C29.3719 14.3858 29.1776 24.9135 27.593 29.6988L8.88403 30.3097Z" fill="#FFB800" stroke="#FFB800"/>
<path d="M9.15033 17.8849C5.71767 23.2969 7.20924 27.9983 8.38411 29.6725L21.8696 23.9324C18.4369 22.9484 11.9598 19.4907 9.15033 17.8849Z" fill="#FFB800" stroke="#FFB800"/>
<path d="M23.5 29C23.5 31.0234 20.9215 31.9026 17.4638 31.9026C14.006 31.9026 11 31.0234 11 29C11 26.9766 14.006 24.5752 17.4638 24.5752C20.9215 24.5752 23.5 26.9766 23.5 29Z" fill="white"/>
<path d="M12 29L17.2907 18C24.622 20.132 23.5 30 22.5 29.5L12 29Z" fill="white" stroke="white"/>
<path d="M11.9987 22.0265C9.96054 25.3907 10.8462 28.3132 11.5437 29.3539L19.5507 25.7858C17.5126 25.1741 13.6668 23.0247 11.9987 22.0265Z" fill="white" stroke="white"/>
</svg>
