<?xml version="1.0" encoding="utf-8"?>
<!-- Svg Vector Icons : http://www.onlinewebfonts.com/icon -->
<!DOCTYPE svg PUBLIC "-//W3C//DTD SVG 1.1//EN" "http://www.w3.org/Graphics/SVG/1.1/DTD/svg11.dtd">
<svg version="1.1" xmlns="http://www.w3.org/2000/svg" xmlns:xlink="http://www.w3.org/1999/xlink" x="0px" y="0px" viewBox="0 0 1000 1000" enable-background="new 0 0 1000 1000" xml:space="preserve">
<metadata> Svg Vector Icons : http://www.onlinewebfonts.com/icon </metadata>
<g><path d="M986.9,413.9L986.9,413.9h-6.5l-5.8,0.4h-10l-8.8,0.4L952,415h-3.8h-3.8l-3.8,0.4l-3.8,0.4h-3.8l-4.2,0.4l-4.2,0.8l-4.6,0.8l-4.6,0.8l0,0h-5.8l-5.4-0.4h-5h-5l-4.6-0.4h-4.6l-8.8-0.8l-9.2-0.4l-4.6-0.4h-5.4h-5l-5.8-0.4h-6.5h-6.9l0,0l-7.3-0.4l-6.5-0.4l-6.1-0.4l-5.8-0.4l-5-0.4l-5-0.4l-4.6-1.2l-4.6-0.4l-4.2-0.4l-4.6-0.8l-8.8-1.2l-10.4-1.5l-11.9-1.5l0,0l1.2,5l1.2,4.6l1.2,4.6l1.2,4.6l1.2,4.2l0.4,1.5l0.8,2.3l0.4,1.5l0.8,1.5l0.4,1.9l0.8,1.5l0.4,1.5l0.8,1.5l0.8,1.2l0.4,1.9l0.8,1.2l0.8,1.2l0.8,1.5l0.8,1.2l0.4,1.2l0.8,1.2l0.8,1.2l0.8,0.8l0.8,1.2l1.2,1.2l0.8,0.8l0.8,0.8l0.8,0.8l1.2,1.2l0.8,0.8l0.8,0.8l1.2,0.8l0.8,0.4l1.2,1.2l1.2,0.8l1.2,0.4l1.2,0.8l0.8,0.4l1.5,0.4l1.2,0.8l1.2,0.8l1.2,0.4l1.2,0.4l2.7,0.8l3.1,1.2l3.1,1.2l3.1,0.8l3.1,0.8l3.5,0.8l3.8,0.8l3.8,1.2l0,0l7.7,0.8l6.9,0.4l6.5,0.8l6.1,0.4l5.8,0.4l5.4,0.4l5,0.8h5.4l5.4,0.4h5.8l6.1,0.4h6.5h6.9h8.1h18l0,0l4.6-0.8l4.6-0.8l4.2-0.8l3.8-0.4l3.8-0.8l3.5-0.8l3.5-0.8l1.5-0.8l1.5-0.4l1.5-0.4l1.5-0.4l1.5-0.4l1.5-0.4l1.2-0.4l1.5-0.4l1.2-1.2l1.2-0.4l1.2-0.8l1.2-0.4l1.2-0.8l1.2-0.4l1.2-1.2l0.8-0.8l0.8-0.8l1.2-0.8l1.2-0.8l0.8-1.2l0.8-0.8l0.8-1.2l1.2-0.8l0.8-1.2l0.8-1.2l0.8-1.2l0.8-1.5l0.4-1.2l0.8-1.2l0.8-1.2l0.8-1.5l0.4-1.5l0.8-1.5l0.4-1.5l0.8-1.5l0.4-1.9l0.4-1.5l0.8-1.9l0.4-1.5l0.4-2.3l0.4-1.5l0.8-2.3l0.4-1.9l0.4-2.3l0.8-4.6l0.8-4.6L986.9,413.9z"/><path d="M12.3,413.9L12.3,413.9l-0.4,1.5v2.3v1.9v2.3v1.5v2.3v1.5v1.5l0.4,2.3l0.4,1.5v1.9l0.4,1.5l0.4,1.9l0.4,1.5l0.4,1.2l0.4,1.9l0.4,1.5l0.8,1.5l0.4,1.5l0.8,1.2l0.8,1.5l0.4,1.2l0.8,1.9l0.8,1.2l0.8,1.2l0.8,1.2l1.2,1.2l0.8,1.2l0.8,1.2l1.2,1.2l0.8,1.2l1.2,0.8l1.2,1.2l0.8,1.2L30,466l1.2,0.8l1.2,0.8l1.2,0.8l1.2,1.2l1.2,0.8l1.5,0.8l1.2,0.4l1.2,0.8l1.5,1.2l1.2,0.4l1.5,0.4l1.5,0.8l1.2,0.4l1.5,0.4l1.5,0.4l1.5,0.8l1.5,0.4l1.2,0.4l1.5,0.4h1.5l1.9,0.4l1.5,0.4h1.5h1.5l1.5,0.4h1.9h1.5h1.5h1.9l0,0l7.3,0.4l7.7,0.4l7.7,0.4h7.3l6.9,0.8h6.9h6.9h6.5h6.5h6.5h6.1l6.1-0.8h5.8l6.1-0.4l5.4-0.4l5.8-0.4l0,0l6.1-1.2l5.4-1.2l3.1-0.8l2.7-0.8l3.1-0.4l2.7-0.8l3.1-0.8l2.7-1.2l2.7-0.8l1.5-0.4l1.5-0.8l1.2-0.4l1.5-0.4l1.2-1.2l1.2-0.4l1.5-0.8l1.2-0.4l1.2-0.8l1.5-0.8l1.2-1.2l1.2-0.8l1.2-0.8l1.2-0.8l1.2-0.8l1.2-1.2l1.2-1.2l1.2-0.8l1.2-1.5l1.2-1.2l1.2-0.8l0.8-1.2l1.2-1.5l0.8-1.5l1.2-1.2l0.8-1.5l1.2-1.5l0.8-1.9l0.8-1.2l1.2-1.5l0.8-1.9l0.8-1.9l0.8-1.9l0.8-1.9l0.8-1.9l0.4-1.9l0.8-2.3l0.8-2.3l0.4-2.3l0.8-2.3l0.4-2.3l0.8-2.7v-9.2l0,0h-3.1l-2.7,0.4l-5.4,0.4l-5.4,0.8l-5.4,0.8l-5,1.2l-5,0.4l-10.4,1.5l-4.6,0.8l-5,0.8l-5,0.8l-5,0.4l-1.9,0.4h-2.3l-2.3,0.4h-2.7l-2.3,0.4h-2.3h-2.3h-2.3l0,0h-3.1l-3.1-0.4H162h-3.1h-3.5l-3.1-0.4l-3.1,0.4h-3.1h-6.5h-6.1l-6.5,0.4l-5.8,0.4l-6.1,0.4h-5.4l-10.4,1.2l-4.6,0.4h-4.2h-3.5l-3.1,0.4l0,0l-1.9-0.4l-1.9-0.4l-1.5-0.8l-1.5-0.4l-1.9-0.4l-1.9-0.4l-4.2-0.4l-3.8-0.4l-4.2-0.4l-4.2-0.4h-4.6l-4.6-0.4H43h-4.6h-5H23H12.3z"/><path d="M213,861.3L213,861.3h573.3l0,0l5.8-0.4h4.2l3.5-0.4l2.7-0.4h2.7l3.1-0.4l3.1-0.4h4.6l0,0l1.5-3.5l1.2-2.7l1.2-3.1l1.2-3.1l1.2-2.7l0.8-3.1l0.8-2.7l0.8-2.7l0.8-3.1l0.8-2.7l0.4-2.7l0.4-2.7l0.8-3.1l0.4-2.7l0.4-3.1v-3.1l0.4-3.1l0.4-3.1l0.4-3.1v-3.5l0.4-6.9l0.8-7.7l0.4-8.1l0.4-8.4l0.8-9.6l0.4-5l0.4-5.4l-99.4-280.5l0,0l-67.5-87.1l0,0l-0.4-4.2v-4.2l-0.8-4.2l-0.4-4.2v-4.2l-0.4-4.2v-3.8v-4.2l-0.4-7.7v-7.7v-7.3v-7.3l0,0l3.1,0.4l3.1,0.4l3.1,0.8l3.1,0.4l3.1,0.8l3.1,0.8l3.1,0.8l3.1,0.8l3.1,0.8l3.1,1.2l3.1,1.2l1.5,0.4l1.5,0.8l1.5,0.4l1.2,0.8l1.5,0.8l1.5,0.4l1.2,0.8l1.5,0.8l1.2,0.8l1.5,0.8l1.2,0.8l1.5,0.8l1.2,0.8l1.2,0.8l1.2,1.2l1.2,0.8l1.2,1.2l1.2,0.8l1.2,1.2l1.2,0.8l0.8,1.2l1.2,1.2l0.8,1.2l1.2,0.8l0.8,1.2l0.8,1.2l0.8,1.5l0.8,1.2l0.8,1.2l0.8,1.2l0.4,1.5l0.8,1.2l0.4,1.5l0.4,1.5l0.4,1.2l0.4,1.5l0.4,1.5l0.4,1.5v1.5l0.4,2.3v1.5v1.5l0,0l13.8,2.3l11.5,1.2l10.4,1.2l9.2,0.8l9.2,0.8l9.6,1.2l23.4,1.5l0,0h7.3h6.9h6.5h6.1h5.4h5.4l5.4,0.4h5h4.6l5,0.4l10.4,0.4l10.7,0.4l12.3,0.8l0,0l10.7-1.2l8.8-0.8l4.2-0.4h4.2l3.8-0.4l4.2-0.4h3.8l4.2-0.4h4.6l4.6-0.4l10.7-0.4H990l0,0l-1.2-11.1l-0.8-9.6l-1.2-9.2l-0.8-4.2l-0.4-3.8l-0.4-4.2l-0.8-3.8l-0.4-3.5l-0.8-3.8l-0.4-3.5l-0.8-3.5l-0.8-3.5l-0.8-3.5L980,308l-0.8-3.1l-0.8-3.5l-1.2-3.5l-0.8-3.5l-1.2-3.5l-1.2-3.5l-1.2-3.5l-1.2-3.8l-1.5-3.5l-1.5-4.2l-1.5-3.8l-1.5-4.2l-1.5-4.2l-3.8-9.2l0,0l-3.1-3.8l-3.1-4.2l-3.1-3.5l-3.1-3.5l-2.7-3.5l-2.7-3.1l-2.7-3.1l-2.7-3.1l-2.7-2.7l-2.7-2.7l-2.3-2.3l-2.7-2.3l-2.3-2.3l-2.7-2.3l-2.3-1.5l-2.7-1.5l-2.3-1.5l-2.7-1.5l-2.7-1.2l-2.3-1.5l-2.7-1.2l-3.1-1.2l-2.7-1.2l-2.7-1.2l-3.1-1.2l-3.1-1.2l-3.1-1.2l-3.5-1.2l-3.1-1.2l-3.8-1.2l-7.3-2.7l0,0l-8.8-2.7l-8.1-2.7l-7.7-2.7l-7.3-2.3l-6.5-1.5l-6.1-1.5l-6.1-1.5l-6.1-1.5l-5.8-1.2l-6.1-1.5l-5.8-1.2l-6.5-1.2l-6.5-1.5l-6.9-1.2l-7.7-1.2l-8.1-1.5l-13-2.7l0,0l-10.7-1.5l-11.1-1.5l-11.1-1.2l-11.1-1.5l-11.5-1.5l-11.1-1.2l-11.5-1.2l-11.5-1.2l-11.5-1.2l-11.5-1.2l-11.5-0.8l-11.5-0.8l-11.5-1.2l-11.9-0.8l-11.5-0.4l-11.9-0.8l-11.5-0.4l-11.9-0.4l-11.5-0.4l-11.9-0.4H505h-11.5h-5.8h-6.1h-5h-5.8h-5.8h-5.8l-5.8,0.4h-5.8l-5.8,0.4h-5.8l-5.8,0.4l-5.8,0.4h-5.4l-5.8,0.4l-5.8,0.4l-5.8,0.4l-5.4,0.4l-5.8,0.4l-5.8,0.8l-5.4,0.4l-15,2.3l0,0l-6.1,0.4l-6.5,0.8l-6.1,0.4L340,146l-5.4,3.8l-6.1,0.4l-5.8,0.8l-6.1,0.4l-5.8,0.8l-5.8,0.8l-5.4,1.2l-5.8,0.8l-5.4,0.8l-5.8,0.4l-10.7,2.3l-10.4,1.5l-10.4,1.9l-10.4,1.5l-10,2.3l-20,3.8l-19.2,3.5l0,0l-5.4,1.2l-5.4,0.8l-5.4,1.2l-5.4,1.2l-5.4,1.2l-5,1.2l-5.4,1.2l-5.4,1.2l-5,1.5l-5,1.5l-2.7,0.8l-2.7,0.8l-1.9,2.3l-2.7,0.8l-2.7,0.8l-2.3,0.8l-2.7,1.5l-2.3,0.8l-2.7,0.8l-2.3,1.2l-2.3,1.2l-2.7,1.2l-2.3,1.2l-2.3,1.5l-2.7,1.2l-2.3,1.2l-2.3,1.5l-2.3,1.2l-2.3,1.2l-2.7,1.5l-2.3,1.2l-2.3,1.5l-2.3,1.5l-1.9,1.9l-2.3,1.5l-2.3,1.5l-2.3,1.5l-2.3,2.3l-1.9,1.5l-2.3,1.5l-1.9,2.7l-1.9,2.3l-2.3,1.9l-1.9,2.3l-2.3,2.3l-1.9,2.3l-1.9,2.3l-2.3,2.7l-1.9,2.7l-1.9,2.3l-1.9,2.7l-1.9,3.1l-1.9,2.7l-1.9,2.7l-4.2,9.2l0,0l-1.9,4.2l-1.9,3.8l-1.5,4.2l-1.9,3.8l-1.2,3.5l-1.5,3.8l-1.2,3.5l-1.2,3.5l-1.2,3.8l-1.2,3.5l-0.8,3.1l-1.2,3.5l-0.8,3.5l-0.8,3.5l-0.4,3.5l-0.8,3.1l-0.8,3.5l-0.4,3.5L15,336l-0.4,3.5l-0.4,3.5l-0.8,3.5v3.8l-0.4,3.5l-0.8,7.7l-0.8,8.1l-0.8,8.4l-0.8,8.8l0,0h5.8h5.4h5.4l5,0.4h5.4l5,0.4h5l4.6,0.4l4.6,0.4l5,0.4l4.2,0.4l4.6,0.4l8.4,0.8l8.1,0.8l0,0H91l5-0.4h4.6l5.4-0.4l11.5-0.4l11.5-0.8l6.1-0.4h6.1l5.8-0.4h6.1h2.7h3.1h2.7h2.7h3.1h2.7l2.7,0.4h2.7l0,0l5.4-0.4l5.4-0.4l5.8-0.4l5.4-0.8l10.7-1.2l11.1-1.2l10.7-1.2l5.8-0.4l5.4-0.8l5.8-0.4l5.8-0.8l5.8-0.4l6.1-0.4l0,0v-1.5l0.4-2.3v-1.5l0.4-2.3l0.4-1.5v-1.5l0.4-1.5l0.4-1.5l0.8-1.2l0.4-1.5l0.4-1.5l0.8-1.2l0.4-1.5l0.4-5.8l0.8-1.2l0.4-1.2l0.8-1.2l0.8-1.2l0.8-1.2l1.2-1.2l0.8-0.8l0.8-1.2l1.2-0.8l0.8-1.2l1.2-0.8l0.8-1.2l1.2-0.8l1.2-0.8l1.2-0.8l1.2-0.8l1.2-0.8l1.2-0.8l1.2-0.8l1.2-0.8l1.2-0.4l1.5-0.8l1.2-0.8l1.5-0.4l1.2-0.8l1.5-0.4l1.2-0.8l1.5-0.4l2.7-1.2l3.1-0.8l3.1-0.8l3.1-1.2l3.1-0.8l3.1-0.8l3.5-0.4l3.1-0.8l3.5-0.8l3.5-0.4l3.1-0.8l0,0v63.3l-67.9,83.6l0,0l-99.4,281.6l0,0l0.4,9.6l0.4,8.8l0.4,15.3l0.4,6.9v6.5l0.4,6.1l0.4,3.1v3.1l0.4,2.7v2.7l0.4,2.7l0.4,3.1l0.4,2.7l0.4,2.7l0.4,2.7l0.4,2.7l0.4,3.1l0.8,2.7l0.4,3.1l0.8,3.1l0.8,2.7l0.8,3.5l1.2,3.1l0.8,3.5l8.4,4.6l0,0h1.9h1.9h1.5l1.5,0.4h1.2h1.5l2.7,0.4l3.1,0.4l1.5,0.4h1.5l1.9,0.4h1.9h2.3h2.7V861.3z M391,370.5L391,370.5l-4.2-8.1l-1.5-3.8l-1.9-3.8l-1.9-3.8l-1.5-3.5l-1.9-3.8l-1.5-3.8l-1.5-3.5l-1.5-3.8l-1.5-3.5l-1.2-3.5l-1.5-3.8l-1.2-3.5l-1.5-3.5l-1.2-3.8l0,0l4.2-0.8l4.2-1.2l4.6-1.2l4.2-0.8l4.2-1.2l4.2-0.8l4.2-1.2l4.2-0.8l4.2-0.8l4.2-0.8l3.8-0.8l4.2-0.8l4.2-0.8l4.2-0.4l4.2-0.8l4.2-0.8l4.2-0.4l4.2-0.4l3.8-0.8l4.2-0.4l4.2-0.4l4.2-0.4l3.8-0.4l4.2-0.4l4.2-0.4h4.2l3.8-0.4h4.2l4.2-0.4h3.8h4.2h4.2h4.2h3.8h4.2h4.2l3.8,0.4h4.2l4.2,0.4h3.8l4.2,0.4l4.2,0.4l3.8,0.4l4.2,0.4l4.2,0.4l3.8,0.4l4.2,0.4l4.2,0.8l4.2,0.4l3.8,0.8l4.2,0.8l4.2,0.4l3.8,0.8l4.2,0.8l4.2,1.2l4.2,0.8l4.2,0.8l3.8,1.2l4.2,0.8l4.2,1.2l4.2,0.8l4.2,1.2l3.8,1.2l4.2,1.2l0,0l-3.1,7.3l-3.1,7.3l-3.1,7.7l-3.1,7.3l-1.5,3.8l-1.5,3.8l-1.2,3.8l-1.5,3.8l-1.5,3.5l-1.2,3.8l-1.2,3.5l-1.2,3.8l0,0l-7.3-0.8l-7.3-0.4l-6.9-0.8l-6.9-0.4l-6.9-0.4l-6.9-0.4l-6.9-0.4l-6.9-0.4h-6.9l-6.9-0.4l-7.3-1.2h-6.9h-6.5l-6.9-0.4h-6.5h-6.9H490h-6.5l-6.9,0.4h-6.5h-6.5l-6.5,0.4l-6.9,0.4h-6.5l-6.5,0.4l-6.9,0.4l-6.5,0.4l-6.5,0.4l-6.9,0.4l-6.5,0.8l-6.9,0.4L391,370.5L391,370.5z M500.8,419.6L500.8,419.6l3.1-0.4h3.1h3.1l3.1,0.4h2.7l3.1,0.4l3.1,0.4l2.7,0.4l3.1,0.4l2.7,0.4l2.7,0.8l3.1,0.4l2.7,0.8l2.7,0.8l2.7,0.8l2.7,1.2l2.7,0.8l2.7,1.2l2.3,1.2l2.7,0.8l2.7,1.5l2.3,1.2l2.3,1.2l2.7,1.5l2.3,1.2l2.3,1.5l2.3,1.5l2.3,1.5l2.3,1.5l2.3,1.5l2.3,2.3l1.9,1.5l2.3,2.3l1.9,2.3l1.9,1.5l2.3,2.3l1.9,2.3l1.9,2.7l1.9,2.3l1.9,2.3l1.5,2.7l1.9,2.3l1.9,2.7l1.5,2.3l1.5,2.7l1.9,2.7l1.5,2.7l1.5,2.7l1.5,2.7l1.5,2.7l1.2,3.1l1.5,2.7l1.2,2.7l1.5,3.1l1.2,2.7l1.2,3.1l1.2,3.1l1.2,2.7l1.2,3.1l1.2,3.1l0.8,3.1l1.2,3.1l0.8,2.7l0.8,3.1l0.8,3.1l0.8,3.1l0.8,3.1l0.8,3.5l0.8,3.1l0.4,3.1l0.8,3.1l0.4,3.1l0.4,3.1l0.4,3.1l0.4,3.5v3.1l0.4,3.1l0.4,3.1v3.1v3.5v3.1v3.1v3.1l-0.4,3.1v3.5l-0.4,3.1v3.1l-0.4,3.1l-0.4,3.1l-1.5-0.8l-0.4,3.1l-0.4,3.1l-0.8,3.1l-0.8,3.1l-0.8,3.1l-0.8,3.1l-0.8,3.1l-0.8,2.7l-1.2,3.1l-1.2,3.1l-0.8,2.7l-1.2,3.1l-1.5,2.7l-1.2,3.1l-1.2,2.7l-1.5,3.1l-1.5,2.7l-1.5,2.7l-1.2,0.8l-1.5,2.7l-1.5,2.7l-1.9,2.7l-1.9,2.7l-1.5,2.3l-2.3,2.7l-1.9,2.3l-1.9,2.7l-2.3,2.3l-1.9,2.3l-2.3,2.3l-2.3,2.3l-2.7,2.3l-2.3,2.3l-2.7,2.3l-2.3,1.5l-2.7,2.3l-3.1,1.5l-2.7,1.5l-10.7,7.3l0,0l-3.5,1.5l-3.5,1.5l-3.8,1.2l-3.5,1.5l-3.8,1.2l-3.5,1.2l-3.8,1.2l-3.8,1.2l-3.5,0.8l-3.8,0.8l-3.5,0.8l-3.8,0.8l-3.8,0.8L515,730l-3.8,0.4l-3.5,0.4l-3.8,0.4h-3.5h-3.5h-3.8h-3.5h-1.5l-1.9-0.4h-1.5h-1.9l-1.5-0.4h-1.9l-1.5-0.4l-1.9-0.4h-1.5l-1.5-0.4l-1.9-0.4l-1.5-0.4l-1.5-0.4l-1.5-0.4l-1.5-0.4l-1.9-0.4l-1.5-0.4l-1.5-0.4l-1.5-0.8l-1.5-0.4l-1.5-0.8l-1.5-0.4l0,0l-1.5-0.8l-1.9-0.4l-1.9-0.8l-1.5-0.8l-1.9-0.8l-1.5-0.8l-1.9-0.8l-1.9-0.8l-1.5-0.8l-1.9-0.8l-1.9-1.2l-1.5-0.8l-1.9-1.2l-1.5-0.8l-1.9-1.2l-1.5-0.8l-1.9-1.2l-1.5-1.2l-1.5-1.2l-1.9-1.2l-1.5-1.2l-1.5-1.2l-1.9-1.2l-1.5-1.2l-1.5-1.2l-1.5-1.2l-1.5-1.2l-1.5-1.5l-1.5-1.2l-1.5-1.2l-1.5-1.5l-1.5-1.2l-1.5-1.5l-1.2-1.2l-1.5-1.5l-1.5-1.5l-1.2-1.2l-1.5-1.5l-1.2-1.5l-1.5-1.5l-1.2-1.2l-1.2-1.5l-1.2-1.5l-1.2-1.5l-1.2-1.5l-1.2-1.5l-1.2-1.5l-1.2-1.5l-1.2-1.5l-1.2-1.5l-0.8-1.5l-1.2-1.5l-0.8-1.5l-0.8-1.5l-1.2-1.5l-0.8-1.5l-0.8-1.5l-0.8-1.5l-0.4-1.5l-0.8-2.3l-0.8-1.5L368,646l-0.8-1.5l-0.4-1.5l0,0l-0.8-2.3l-0.8-2.3l-0.4-1.5l-0.8-2.3l-0.8-2.3l-0.4-2.3l-0.8-1.5l-0.4-2.3l-0.4-2.3l-0.4-2.3l-0.8-2.3l-0.4-2.3l-0.4-1.5l-0.4-2.3l-0.4-2.3l-0.4-2.3v-2.3l-0.4-2.3l-0.4-2.3l-0.4-2.3v-2.3l-0.4-2.3v-2.3V590l-0.4-2.3v-2.3v-2.3v-2.3v-2.3v-1.5v-2.3v-2.3l0.4-2.3v-2.3l0.4-2.3v-2.3l0.4-2.3v-2.3l0.4-2.3l0.4-1.5l0.4-2.3l0.4-2.3l0.4-2.3l0.4-2.3l0.4-1.5l0.4-2.3l0.8-2.3l0.4-1.5l0.8-2.3l0.4-2.3l0.8-1.5l0.8-2.3l0.8-1.5l0.8-2.3l0.8-1.5l0.8-2.3l0.8-1.5l0.8-2.3l1.2-1.5l0.8-1.5l1.2-2.3l0.8-1.5l1.2-1.5l1.2-1.5l6.1-14.2l0,0l1.2-2.7l1.2-2.3l1.2-2.3l1.2-2.3l1.2-2.7l1.2-1.5l1.5-2.3l1.2-2.3l1.5-2.3l1.5-1.5l1.5-2.3l1.5-1.5l1.5-2.3l1.5-1.5l1.5-1.5l1.5-1.5l1.9-1.5l1.5-1.5l1.9-1.5l1.9-1.2l1.5-1.5l1.9-1.5l1.9-1.2l1.9-1.2l1.9-1.5l1.9-1.2l1.9-1.2l1.9-1.2l2.3-1.2l1.9-1.2l1.9-0.8l2.3-1.2l1.9-1.2l1.9-0.8l2.3-0.8l1.9-1.2l2.3-0.8l1.9-0.8l2.3-0.8l2.3-0.8l1.9-0.8l2.3-0.4l1.9-0.8l2.3-0.8l1.9-0.4l2.3-0.8l2.3-0.4l1.9-0.4l2.3-0.4l1.9-0.4l2.3-0.4l1.9-0.4l2.3-0.4h1.9l2.3-0.4l1.9-0.4h1.9h1.9h2.3l1.9-0.4h1.9h1.9h1.9L500.8,419.6z"/></g>
</svg>