<svg width="487" height="456" viewBox="0 0 487 456" fill="none" xmlns="http://www.w3.org/2000/svg">
<path d="M235.187 20.5383C230.882 27.8662 227.166 33.817 226.874 33.817C226.582 33.817 221.984 28.5046 216.603 22.002C211.227 15.4082 206.629 10.0958 206.332 10.0958C205.943 10.0047 205.159 11.5596 204.472 13.3928C203.688 15.3171 201.146 21.9108 198.798 28.1352L194.396 39.3072L182.27 28.6824C175.52 22.8228 169.948 18.1534 169.754 18.3358C169.461 18.5182 167.991 25.2943 166.233 33.3519C164.572 41.3182 163.101 48.0031 163.004 48.1855C162.809 48.2767 156.551 44.5238 148.92 39.8544L135.23 31.2452L134.544 38.6643C134.251 42.7865 133.954 49.7451 133.954 54.1409C133.954 58.6279 133.759 62.1984 133.565 62.1984C133.37 62.1984 126.425 59.2663 118.307 55.7871C110.091 52.2166 103.244 49.4669 103.049 49.6493C102.952 49.7405 103.638 55.6001 104.612 62.6544C105.689 69.7041 106.57 76.5715 106.57 77.8574V80.329L90.431 75.9331C81.5335 73.5528 74.2919 71.7197 74.2919 71.9021C74.2919 72.0845 76.347 78.6783 78.7917 86.4622C81.3339 94.3373 83.0968 100.931 82.7997 101.205C82.5075 101.478 75.0711 100.931 66.271 99.9233C57.4709 98.9155 50.2341 98.1814 50.1318 98.2726C50.0344 98.3638 53.0635 104.502 56.8816 111.916C60.6948 119.335 63.534 125.651 63.2369 126.02C62.8474 126.294 55.3135 126.846 46.416 127.119L30.1989 127.68L39.5882 140.498C47.5117 151.305 48.6854 153.316 47.2146 153.868C46.2358 154.142 38.7068 155.61 30.4911 156.983L15.5256 159.636L22.178 166.048C25.8938 169.618 31.1777 174.84 34.0121 177.585L39.0964 182.715L24.2331 187.571C16.0174 190.316 8.87801 192.792 8.48841 193.157C8.00141 193.522 13.3779 197.918 20.4199 202.865C27.3645 207.904 33.1355 212.204 33.1355 212.574C33.2329 212.938 26.8775 216.418 19.0514 220.357C11.2253 224.293 4.87 227.681 4.87 227.954C4.87 228.228 11.2253 231.616 19.0514 235.556C26.8727 239.491 33.2329 242.97 33.2329 243.34C33.1355 243.705 27.4619 248.009 20.4199 253.048C13.3779 257.991 8.00141 262.387 8.48841 262.756C8.87801 263.121 16.0174 265.593 24.2331 268.342L39.1012 273.19L34.5039 277.768C31.9618 280.331 26.5805 285.552 22.6698 289.4L15.5304 296.268L30.9829 298.922C39.4908 300.294 47.0198 301.758 47.7065 302.036C48.4906 302.492 45.9485 306.706 39.5882 315.406L30.1989 328.229L46.3381 328.685C55.1381 328.958 62.7694 329.414 63.0616 329.784C63.4512 330.149 60.6169 336.469 56.8037 343.888C52.9905 351.307 49.9565 357.531 50.1513 357.623C50.2487 357.714 57.4855 356.98 66.2904 355.972C74.9931 354.964 82.4296 354.326 82.7218 354.599C83.2088 355.06 81.8404 359.912 74.7009 382.807C74.3113 384.089 77.1457 383.542 90.1534 379.971C105.703 375.758 106.093 375.758 106.385 377.591C106.483 378.69 105.801 385.466 104.724 392.789C103.648 400.026 102.864 406.159 103.064 406.25C103.161 406.433 110.008 403.688 118.224 400.117C126.342 396.638 133.19 393.706 133.482 393.706C133.774 393.706 133.969 397.276 133.969 401.672C133.969 406.159 134.261 413.118 134.558 417.24L135.245 424.659L148.934 416.05C156.561 411.38 162.824 407.623 163.018 407.81C163.213 407.901 164.679 414.586 166.345 422.644C168.005 430.61 169.476 437.386 169.671 437.573C169.963 437.755 175.539 433.086 182.289 427.222L194.415 416.602L198.526 427.313C200.873 433.264 203.512 439.949 204.394 442.151L206.055 446.274L216.028 434.367C221.507 427.865 226.397 422.461 226.786 422.279C227.176 422.188 230.994 428.047 235.294 435.375C239.497 442.612 243.218 448.654 243.51 448.654C243.802 448.654 247.518 442.612 251.725 435.375C256.031 428.047 259.746 422.096 260.039 422.096C260.331 422.096 265.025 427.404 270.407 433.911C275.783 440.505 280.381 445.818 280.678 445.818C280.97 445.909 282.83 441.513 284.983 436.018C287.038 430.614 289.58 424.021 290.656 421.367L292.614 416.515L304.74 427.226C311.49 433.086 317.061 437.76 317.358 437.578C317.553 437.395 319.019 430.614 320.685 422.648C322.345 414.591 323.811 407.906 324.011 407.814C324.206 407.632 330.464 411.385 338.095 416.054L351.784 424.664L352.471 417.245C352.763 413.122 353.056 406.164 353.056 401.677C353.056 397.281 353.25 393.71 353.543 393.71C353.835 393.71 360.682 396.638 368.8 400.122C377.016 403.692 383.863 406.442 383.961 406.255C384.155 406.164 383.376 400.304 382.397 393.254C381.321 386.2 380.44 379.333 380.44 378.051V375.58L396.579 379.976C409.879 383.546 412.713 384.098 412.323 382.812C412.031 381.987 409.976 375.484 407.726 368.252C405.476 361.111 403.913 354.973 404.205 354.7C404.595 354.335 412.031 354.973 420.734 355.981C429.534 356.989 436.771 357.723 436.868 357.632C436.966 357.54 433.937 351.403 430.118 343.988C426.305 336.569 423.466 330.253 423.86 329.793C424.25 329.428 431.881 328.968 440.681 328.694L456.821 328.238L447.431 315.506C442.25 308.457 438.432 302.501 439.021 302.228C439.508 301.954 447.042 300.486 455.744 299.022L471.489 296.272L463.863 288.944C459.66 284.822 454.376 279.697 452.029 277.316L447.918 273.194L462.786 268.342C471.002 265.597 478.141 263.121 478.531 262.756C479.018 262.392 473.642 257.996 466.6 253.048C459.655 248.014 453.884 243.709 453.884 243.34C453.787 242.975 460.142 239.496 467.968 235.556C475.775 231.616 482.13 228.228 482.13 227.954C482.13 227.681 475.775 224.293 467.949 220.353C460.122 216.413 453.767 212.934 453.865 212.569C453.865 212.204 459.636 207.9 466.58 202.861C473.622 197.918 478.999 193.522 478.512 193.152C478.122 192.788 470.983 190.312 462.767 187.566L447.899 182.715L452.496 178.136C455.038 175.574 460.42 170.352 464.33 166.508L471.47 159.641L455.725 156.896C447.022 155.432 439.493 153.964 439.001 153.69C438.412 153.417 442.23 147.461 447.412 140.412L456.801 127.685L441.836 127.133C433.62 126.768 425.896 126.49 424.722 126.399C422.765 126.307 423.062 125.391 429.807 112.386C433.815 104.693 436.946 98.3775 436.849 98.2817C436.751 98.0993 429.417 98.9246 420.714 99.9324C411.914 100.94 404.478 101.487 404.186 101.214C403.893 100.94 405.457 94.8024 407.707 87.6615C409.957 80.4293 412.007 73.9267 412.304 73.1014C412.694 71.82 409.762 72.3672 396.559 75.9422L380.42 80.3381V77.8666C380.42 76.5852 381.302 69.7178 382.28 62.6635C383.357 55.6138 384.038 49.7496 383.844 49.5672C383.746 49.3848 376.899 52.2211 368.683 55.7962C360.565 59.2755 353.62 62.2075 353.426 62.2075C353.231 62.2075 353.036 58.3589 353.036 53.6894C353.036 48.9288 352.744 41.9657 352.452 38.1216L351.765 31.2543L338.075 39.8636C330.449 44.533 324.186 48.2904 323.991 48.1034C323.797 48.0123 322.326 41.3273 320.665 33.2698C319.005 25.3035 317.534 18.5273 317.242 18.3449C317.047 18.1625 311.471 22.832 304.721 28.6916L292.595 39.3164L288.192 28.1444C285.845 21.9154 283.205 15.3262 282.518 13.4018C281.832 11.5687 281.053 10.0138 280.658 10.0138C280.366 10.105 275.769 15.4174 270.387 21.92C265.006 28.5137 260.316 33.8261 260.019 33.8261C259.727 33.8261 256.011 27.8753 251.706 20.5474C247.498 13.3152 243.782 7.35985 243.49 7.35985C243.198 7.35985 239.492 13.3061 235.187 20.5383Z" fill="white"/>
<path d="M232.634 77.7431C193.703 82.5856 163.899 109.216 155.394 146.738C154.287 151.648 154.151 155.815 154.151 181.909V211.498L155.811 214.524C158.853 220.038 160.305 221.383 173.719 230.058L186.995 238.801V249.492V260.252H192.526H198.058V246.599V232.881L182.706 222.862C170.882 215.128 167.08 212.305 166.111 210.488C165.006 208.337 164.868 205.984 164.868 182.919C164.868 163.552 165.145 156.221 165.906 151.381C171.299 119.303 197.575 93.9523 230.561 89.1098C246.882 86.6886 261.54 88.9073 276.544 96.171C297.911 106.528 312.364 124.48 318.173 147.883C319.072 151.449 319.35 157.7 319.555 180.227C319.833 206.453 319.764 208.27 318.517 210.488C317.548 212.305 313.676 215.196 301.922 222.862L286.57 232.881V246.599V260.248H292.102H297.633V249.489V238.798L311.048 229.987C331.515 216.672 330.824 218.286 330.824 183.051C330.824 154.471 330.202 148.082 326.33 136.719C321.629 123.001 315.475 113.384 304.617 102.827C291.824 90.3864 278.409 83.1227 260.984 79.2898C255.247 78.0132 238.097 77.0711 232.634 77.7431Z" fill="black"/>
<path d="M186.79 163.282C184.991 165.031 183.539 166.78 183.539 167.115C183.539 167.449 186.237 170.41 189.554 173.639L195.638 179.555L189.554 185.472C186.234 188.7 183.539 191.659 183.539 192.061C183.539 192.868 189.901 199.054 190.8 199.054C191.147 199.054 194.189 196.43 197.509 193.205L203.593 187.289L209.816 193.34L216.039 199.392L219.98 195.491L223.991 191.659L217.768 185.607L211.545 179.555L217.699 173.571C221.088 170.275 223.713 167.317 223.578 166.983C223.439 166.713 221.64 164.966 219.636 163.082L215.969 159.783L209.816 165.767L203.593 171.819L197.506 165.906C194.186 162.677 191.144 160.056 190.728 160.056C190.384 160.053 188.585 161.533 186.79 163.282Z" fill="black"/>
<path d="M264.238 163.282C262.439 165.031 260.987 166.78 260.987 167.115C260.987 167.449 263.682 170.41 267.002 173.639L273.086 179.555L267.002 185.472C263.682 188.7 260.987 191.659 260.987 192.061C260.987 192.868 267.349 199.054 268.248 199.054C268.595 199.054 271.637 196.43 274.957 193.205L281.041 187.289L287.264 193.34L293.487 199.392L297.428 195.491L301.439 191.659L295.216 185.607L288.993 179.555L295.147 173.571L301.3 167.52L298.672 164.629C293.623 159.182 294.109 159.114 287.191 165.838L281.038 171.822L274.954 165.906C271.634 162.677 268.592 160.056 268.176 160.056C267.832 160.053 266.033 161.533 264.238 163.282Z" fill="black"/>
<path d="M237.475 198.183C234.433 201.209 232.151 206.723 231.527 212.775L231.044 217.212H242.246H253.379V214.993C253.379 211.9 251.511 204.839 249.921 201.813C248.122 198.315 244.802 195.694 242.177 195.694C240.656 195.694 239.343 196.434 237.475 198.183Z" fill="black"/>
<path d="M114.665 223.267C109.616 225.215 105.814 228.714 103.324 233.556C100.556 239.003 100.074 243.441 101.525 248.418C102.216 250.57 102.633 252.386 102.494 252.454C95.5106 255.547 91.7743 258.91 89.2877 264.222C87.0062 268.93 87.1451 276.866 89.5654 281.776C96.2048 295.358 114.321 298.586 124.968 288.097C126.489 286.618 128.08 284.67 128.632 283.592C129.184 282.583 129.875 281.776 130.083 281.776C130.636 281.776 195.152 308.944 198.333 310.49L200.337 311.5L191.835 315.124C187.203 317.14 183.262 318.754 183.123 318.754C182.984 318.754 182.432 317.88 181.81 316.738C180.22 313.712 176.348 310.214 172.268 308.198C169.156 306.584 167.84 306.317 162.794 306.317C157.749 306.317 156.363 306.587 152.974 308.198C137.139 315.729 136.518 337.922 151.8 345.922C153.873 346.996 155.603 347.938 155.672 347.938C155.742 348.006 155.325 349.552 154.773 351.366C153.391 355.803 153.873 362.058 155.95 366.296C163.833 382.164 187.067 382.637 195.158 367.103C197.926 361.791 198.686 356.276 197.165 351.636L196.196 348.475L219.223 338.726L242.319 328.976L264.932 338.591C286.229 347.601 287.614 348.276 287.406 349.755C287.267 350.63 287.128 353.925 287.059 357.086C286.92 363.81 288.511 367.778 293.143 372.215C297.637 376.585 301.786 378.199 308.7 378.199C314.093 378.267 314.923 378.064 318.934 375.981C321.354 374.704 324.052 372.752 325.018 371.678C329.928 365.961 331.932 357.758 329.858 351.369C329.306 349.552 328.89 348.006 328.959 347.941C329.028 347.941 330.758 346.999 332.831 345.925C347.975 338.057 347.353 315.664 331.793 308.265C321.834 303.49 309.319 306.786 303.579 315.661C302.471 317.41 301.366 318.687 301.089 318.619C296.8 317.005 284.493 311.626 284.493 311.356C284.563 311.018 352.329 282.304 354.059 281.902C354.542 281.767 355.441 282.574 355.996 283.718C357.726 286.879 361.941 290.509 366.091 292.461C371.14 294.747 378.676 294.815 383.516 292.731C388.079 290.715 393.267 285.738 395.202 281.567C397.414 276.792 397.483 268.721 395.34 264.216C392.92 259.039 387.871 254.534 382.134 252.448C382.065 252.38 382.481 250.499 383.103 248.145C384.485 242.833 384.002 239.135 381.235 233.486C374.734 220.508 355.788 217.817 345.829 228.576C341.477 233.283 340.231 236.38 340.161 242.431C340.161 245.389 340.439 248.753 340.714 249.894L341.266 251.978L291.754 272.892L242.316 293.805L192.804 272.892C147.095 253.525 143.362 251.846 143.779 250.566C144.056 249.759 144.4 247.004 144.609 244.447C145.23 236.042 140.876 228.444 132.993 224.273C128.01 221.653 119.992 221.248 114.665 223.267ZM128.288 234.225C131.677 236.444 133.75 239.74 133.75 243.036C133.681 244.717 132.643 248.148 130.983 251.846C129.531 255.142 128.424 257.965 128.493 258.033C128.562 258.1 151.037 267.583 178.348 279.014L228.134 299.86L225.506 300.937C224.054 301.474 221.148 302.754 219.005 303.628C216.932 304.571 214.925 305.31 214.581 305.31C214.237 305.31 193.975 296.837 169.497 286.48C145.019 276.123 124.757 267.65 124.548 267.65C124.271 267.65 122.68 270.541 121.02 274.039C118.67 278.882 117.423 280.696 115.628 281.773C112.169 283.789 109.266 284.126 105.672 282.782C98.48 280.091 96.1985 271.618 101.317 265.972C102.907 264.222 104.845 263.28 110.099 261.534C113.763 260.393 117.082 259.18 117.36 258.914C117.707 258.643 116.461 255.283 114.731 251.518C111.964 245.801 111.551 244.187 111.828 241.9C112.866 234.428 122.065 230.125 128.288 234.225ZM367.476 234.158C373.699 238.261 374.185 242.698 369.619 252.113C367.89 255.612 366.852 258.57 367.199 258.837C367.546 259.174 370.796 260.383 374.46 261.528C381.374 263.747 384.002 265.564 385.388 269.194C387.808 275.38 383.589 282.239 376.605 283.516C373.425 284.12 368.515 282.172 366.508 279.548C365.678 278.336 364.018 275.31 362.983 272.824C361.878 270.335 360.771 268.117 360.424 267.914C360.146 267.712 321.215 283.921 273.919 303.892C226.689 323.864 186.581 340.81 184.786 341.552L181.536 342.896L184.369 349.083C187.62 356.212 187.689 359.575 184.716 363.408C178.494 371.276 165.975 367.845 165.079 357.961C164.801 355.138 165.218 353.925 167.913 348.478C169.642 345.047 171.094 341.954 171.094 341.687C171.094 341.417 167.913 340.208 163.971 339.066C156.849 336.983 154.429 335.436 152.491 331.735C151.179 329.246 151.592 324.539 153.252 322.118C155.95 318.285 158.231 317.076 162.725 317.076C168.604 317.076 170.885 319.024 174.274 326.825C176.212 331.195 177.247 332.809 178.008 332.607C178.976 332.404 355.93 258.232 356.205 258.03C356.205 257.962 355.097 255.139 353.576 251.843C350.534 244.917 350.256 241.689 352.329 238.058C355.305 232.949 362.705 231.065 367.476 234.158ZM327.924 318.555C332.556 321.851 334.077 326.893 331.935 331.803C330.553 335.031 327.163 337.182 319.972 339.266C316.447 340.34 313.541 341.417 313.541 341.687C313.541 341.957 314.853 344.848 316.513 348.144C321.007 357.221 320.524 361.861 314.645 366.099C311.95 368.048 305.45 368.048 302.752 366.099C297.151 362.064 296.39 357.694 299.984 349.691C301.366 346.597 302.474 343.774 302.474 343.369C302.474 342.967 292.31 338.394 279.93 333.147C267.551 327.902 257.456 323.394 257.456 323.127C257.456 322.857 260.224 321.446 263.679 319.966L269.902 317.278L287.744 324.809C297.564 328.979 305.929 332.475 306.415 332.677C306.901 332.88 308.419 330.526 310.287 326.693C313.124 320.709 314.989 318.558 318.378 317.211C320.385 316.401 326.056 317.208 327.924 318.555Z" fill="black"/>
<path d="M214.657 249.492V260.252H220.189H225.72V249.492V238.733H220.189H214.657V249.492Z" fill="black"/>
<path d="M236.784 249.492V260.252H242.316H247.847V249.492V238.733H242.316H236.784V249.492Z" fill="black"/>
<path d="M258.911 249.492V260.252H264.443H269.974V249.492V238.733H264.443H258.911V249.492Z" fill="black"/>
</svg>
