<?xml version="1.0" encoding="utf-8"?>
<!-- Svg Vector Icons : http://www.onlinewebfonts.com/icon -->
<!DOCTYPE svg PUBLIC "-//W3C//DTD SVG 1.1//EN" "http://www.w3.org/Graphics/SVG/1.1/DTD/svg11.dtd">
<svg version="1.1" xmlns="http://www.w3.org/2000/svg" xmlns:xlink="http://www.w3.org/1999/xlink" x="0px" y="0px" viewBox="0 0 1000 1000" enable-background="new 0 0 1000 1000" xml:space="preserve">
<metadata> Svg Vector Icons : http://www.onlinewebfonts.com/icon </metadata>
<g><path d="M10,10L10,10L10,10z"/><path d="M945.6,196.1c-32.5-9.3-66.4,9.6-75.7,42.1L865,255H293.8l-8.6-68.8c-3.8-30.7-29.9-53.7-60.8-53.7H71.3c-33.8,0-61.2,27.4-61.2,61.2c0,33.8,27.4,61.2,61.2,61.2h99l54.5,436.3c3.8,30.7,29.9,53.7,60.8,53.7h520.6c27.3,0,51.4-18.1,58.9-44.4l122.5-428.7C996.9,239.3,978.1,205.4,945.6,196.1L945.6,196.1z M500,500v-61.2h122.5V500H500z M622.5,561.3v61.2H500v-61.2H622.5z M500,377.5v-61.2h122.5v61.2H500z M301.5,316.3h137.3v61.2H309.1L301.5,316.3z M316.8,438.8h122V500H324.4L316.8,438.8L316.8,438.8z M332.1,561.3h106.7v61.2h-99L332.1,561.3z M760.1,622.5h-76.3v-61.2h93.8L760.1,622.5L760.1,622.5z M795.1,500H683.8v-61.2h128.8L795.1,500L795.1,500z M830.1,377.5H683.8v-61.2h163.8L830.1,377.5L830.1,377.5z M255,898.1c0-50.7,41.1-91.9,91.9-91.9c50.7,0,91.9,41.1,91.9,91.9S397.6,990,346.9,990C296.2,990,255,948.9,255,898.1z M622.5,898.1c0-50.7,41.1-91.9,91.9-91.9c50.7,0,91.9,41.1,91.9,91.9S765.1,990,714.4,990C663.7,990,622.5,948.9,622.5,898.1z"/></g>
</svg>